<svg id="Layer_1" data-name="Layer 1" xmlns="http://www.w3.org/2000/svg" viewBox="0 0 340.98 69.37"><defs><style>.cls-1{fill:#fff;}</style></defs><path class="cls-1" d="M0,69.37A188.15,188.15,0,0,1,19.11,53a228.46,228.46,0,0,1,21-14.09,187.67,187.67,0,0,1,46.55-20,136.31,136.31,0,0,1,50.77-4.25c2.14.2,4.26.54,6.38.86,1.06.18,2.11.4,3.16.6s2.11.4,3.15.66a123.73,123.73,0,0,1,12.4,3.44A130.71,130.71,0,0,1,185.9,30.74l2.77,1.63c.92.55,1.81,1.15,2.71,1.72l5.28,3.42c3.48,2.21,7,4.33,10.63,6.33a168.93,168.93,0,0,0,22.44,10.29c15.38,5.77,31.82,9,48.18,8.2a79.83,79.83,0,0,0,23.9-4.82,59.93,59.93,0,0,0,20.64-12.79A56.47,56.47,0,0,0,336,24.4a66.5,66.5,0,0,0,3.46-11.95A77.45,77.45,0,0,0,340.93,0a79.15,79.15,0,0,1-.53,12.59A68.31,68.31,0,0,1,337.61,25,58.07,58.07,0,0,1,324.54,46.8a63.12,63.12,0,0,1-21.28,14.36,81.62,81.62,0,0,1-25,5.84,106.31,106.31,0,0,1-25.64-1.12,141,141,0,0,1-24.8-6.41A166.27,166.27,0,0,1,204.48,49q-5.61-3.06-11-6.47l-5.3-3.39c-.87-.54-1.72-1.11-2.61-1.63l-2.65-1.55a124.78,124.78,0,0,0-22.3-10.22,120.43,120.43,0,0,0-23.88-5.49c-2-.29-4.07-.44-6.1-.64s-4.09-.27-6.15-.29a120.17,120.17,0,0,0-12.3.27c-2.06.12-4.1.36-6.15.56s-4.08.52-6.11.85c-4.07.63-8.13,1.42-12.14,2.4s-8,2.08-11.94,3.35S68,29.42,64.13,30.92a208.49,208.49,0,0,0-22.61,10.5A243,243,0,0,0,20.07,54.3C16.59,56.62,13.19,59,9.83,61.55S3.16,66.61,0,69.37Z"/><path class="cls-1" d="M185.93,6a148.52,148.52,0,0,0,17,10.69q4.4,2.41,8.92,4.52c3,1.4,6,2.76,9.13,4s6.21,2.31,9.34,3.39,6.31,2,9.52,2.75a128.87,128.87,0,0,0,19.46,3.49c3.27.33,6.56.61,9.85.68a89.41,89.41,0,0,0,9.83-.16,56.12,56.12,0,0,0,18.82-4.17,30.68,30.68,0,0,0,14.32-12.25,32,32,0,0,0,3.71-9A35,35,0,0,0,316.71,5a29,29,0,0,0,.22-5,33,33,0,0,1-2.61,20.11,31,31,0,0,1-6.18,8.53,35,35,0,0,1-8.65,6.09,45.83,45.83,0,0,1-9.86,3.63,69.51,69.51,0,0,1-10.27,1.74,91.41,91.41,0,0,1-10.32.29c-1.72,0-3.43-.1-5.14-.19s-3.42-.25-5.13-.42a125,125,0,0,1-39.32-11,132.79,132.79,0,0,1-17.77-10A103,103,0,0,1,185.93,6Z"/></svg>