<?xml version="1.0" encoding="UTF-8" standalone="no"?><!DOCTYPE svg PUBLIC "-//W3C//DTD SVG 1.1//EN" "http://www.w3.org/Graphics/SVG/1.1/DTD/svg11.dtd"><svg width="100%" height="100%" viewBox="0 0 2801 1441" version="1.1" xmlns="http://www.w3.org/2000/svg" xmlns:xlink="http://www.w3.org/1999/xlink" xml:space="preserve" xmlns:serif="http://www.serif.com/" style="fill-rule:evenodd;clip-rule:evenodd;stroke-linejoin:round;stroke-miterlimit:2;"><g id="Sahara_Logo_Final_curve"><g id="Sahara"><path d="M296.399,706.965c32.933,-28.542 49.399,-63.305 49.399,-104.288c0,-40.984 -11.892,-73.734 -35.677,-98.251c-23.785,-24.517 -52.51,-42.813 -86.175,-54.888c-33.665,-12.076 -67.513,-24.334 -101.544,-36.776c-34.031,-12.441 -62.939,-31.286 -86.724,-56.535c-23.785,-25.249 -35.678,-57.633 -35.678,-97.153c0,-68.793 19.211,-120.023 57.633,-153.688c38.422,-33.665 84.346,-50.497 137.77,-50.497c53.425,-0 111.973,5.123 175.644,15.368l0,40.618c-57.084,-10.246 -110.509,-15.369 -160.275,-15.369c-49.765,0 -90.566,13.905 -122.401,41.716c-31.836,27.81 -47.753,66.964 -47.753,117.461c-0,43.911 22.687,76.844 68.061,98.8c20.492,10.246 42.997,19.76 67.513,28.542c24.517,8.782 49.217,18.662 74.1,29.64c24.883,10.977 47.387,23.968 67.513,38.971c20.126,15.002 36.592,35.86 49.4,62.573c12.807,26.712 19.211,57.816 19.211,93.31c-0,35.495 -8.233,66.781 -24.7,93.86c-16.467,27.078 -36.775,48.302 -60.926,63.671c-24.151,15.368 -52.328,27.81 -84.529,37.324c-51.961,16.1 -110.509,24.151 -175.643,24.151l-27.445,-0l0,-40.618c130.269,0 224.678,-25.98 283.226,-77.942Z" style="fill:#fff;fill-rule:nonzero;"/><path d="M816.743,274.443l40.617,0l0,549.984c-43.911,0 -82.333,-1.83 -115.266,-5.489c-32.933,-3.659 -67.147,-11.526 -102.642,-23.602c-35.494,-12.075 -64.585,-28.359 -87.273,-48.851c-22.687,-20.492 -41.349,-48.851 -55.986,-85.077c-14.637,-36.227 -21.955,-77.027 -21.955,-122.402c-0,-45.374 4.574,-84.345 13.722,-116.913c9.148,-32.567 20.857,-58.547 35.129,-77.941c14.271,-19.394 30.188,-35.312 47.753,-47.753c30.737,-22.688 61.109,-34.031 91.115,-34.031c54.888,-0 106.484,25.98 154.786,77.941l-0,-65.866Zm-301.888,259.074c0,95.872 29.64,162.471 88.92,199.795c52.693,32.933 123.682,49.4 212.968,49.4l-0,-387.514c-24.883,-28.542 -48.851,-51.046 -71.904,-67.513c-23.054,-16.467 -48.485,-24.7 -76.296,-24.7c-46.106,0 -83.247,20.309 -111.424,60.927c-28.176,40.617 -42.264,97.152 -42.264,169.605Z" style="fill:#fff;fill-rule:nonzero;"/><path d="M1352.45,823.329l1.098,-289.812c0,-61.475 -14.82,-115.266 -44.46,-161.372c-29.639,-46.107 -66.049,-69.16 -109.228,-69.16c-27.81,0 -53.242,8.233 -76.295,24.7c-23.053,16.467 -47.021,38.971 -71.904,67.513l-0,428.131l-40.618,0l0,-823.329l40.618,0l-0,340.309c48.302,-51.961 99.897,-77.941 154.786,-77.941c30.006,-0 60.377,11.343 91.115,34.031c64.403,46.838 96.604,125.511 96.604,236.021l-1.098,290.909l-40.618,0Z" style="fill:#fff;fill-rule:nonzero;"/><path d="M1850.84,274.443l40.618,0l-0,549.984c-43.911,0 -82.333,-1.83 -115.266,-5.489c-32.934,-3.659 -67.147,-11.526 -102.642,-23.602c-35.495,-12.075 -64.586,-28.359 -87.273,-48.851c-22.687,-20.492 -41.349,-48.851 -55.986,-85.077c-14.637,-36.227 -21.956,-77.027 -21.956,-122.402c0,-45.374 4.574,-84.345 13.722,-116.913c9.148,-32.567 20.858,-58.547 35.129,-77.941c14.271,-19.394 30.189,-35.312 47.753,-47.753c30.738,-22.688 61.109,-34.031 91.115,-34.031c54.889,-0 106.484,25.98 154.786,77.941l0,-65.866Zm-301.887,259.074c-0,95.872 29.64,162.471 88.919,199.795c52.693,32.933 123.683,49.4 212.968,49.4l0,-387.514c-24.883,-28.542 -48.851,-51.046 -71.904,-67.513c-23.053,-16.467 -48.485,-24.7 -76.295,-24.7c-46.107,0 -83.248,20.309 -111.424,60.927c-28.176,40.617 -42.264,97.152 -42.264,169.605Z" style="fill:#fff;fill-rule:nonzero;"/><path d="M2085.77,823.329l-40.617,0l-0,-548.886l40.617,0l0,80.137c15.369,-18.296 38.971,-37.873 70.807,-58.73c31.835,-20.858 62.207,-31.287 91.115,-31.287c28.908,0 54.157,8.233 75.746,24.7c21.59,16.467 32.75,43.362 33.482,80.686l-40.617,0c-0,-20.491 -6.587,-36.592 -19.76,-48.302c-13.174,-11.709 -31.104,-17.564 -53.791,-17.564c-22.687,-0 -50.315,10.978 -82.882,32.933c-32.567,21.956 -57.267,46.107 -74.1,72.453l0,413.86Z" style="fill:#fff;fill-rule:nonzero;"/><path d="M2755.41,274.443l40.618,0l0,549.984c-43.911,0 -82.333,-1.83 -115.266,-5.489c-32.933,-3.659 -67.147,-11.526 -102.642,-23.602c-35.494,-12.075 -64.585,-28.359 -87.273,-48.851c-22.687,-20.492 -41.349,-48.851 -55.986,-85.077c-14.637,-36.227 -21.955,-77.027 -21.955,-122.402c-0,-45.374 4.574,-84.345 13.722,-116.913c9.148,-32.567 20.857,-58.547 35.128,-77.941c14.271,-19.394 30.189,-35.312 47.753,-47.753c30.738,-22.688 61.11,-34.031 91.116,-34.031c54.888,-0 106.484,25.98 154.785,77.941l0,-65.866Zm-301.887,259.074c0,95.872 29.64,162.471 88.92,199.795c52.693,32.933 123.682,49.4 212.967,49.4l0,-387.514c-24.882,-28.542 -48.85,-51.046 -71.904,-67.513c-23.053,-16.467 -48.485,-24.7 -76.295,-24.7c-46.106,0 -83.248,20.309 -111.424,60.927c-28.176,40.617 -42.264,97.152 -42.264,169.605Z" style="fill:#fff;fill-rule:nonzero;"/></g><clipPath id="_clip1"><rect id="swoosh" x="0" y="949.885" width="2800.19" height="490.338"/></clipPath><g clip-path="url(#_clip1)"><path d="M0,1440.22c49.253,-41.542 101.682,-80.198 156.935,-115.711c55.305,-35.913 112.878,-69.162 172.456,-99.594c119.415,-61.779 248.014,-109.336 382.277,-141.369c135.547,-32.478 277,-42.67 416.933,-30.041c17.574,1.413 34.984,3.817 52.394,6.079c8.705,1.272 17.328,2.827 25.951,4.241c8.622,1.413 17.327,2.827 25.868,4.665c34.411,6.579 68.4,14.695 101.831,24.315c66.677,19.312 130.987,44.218 192.001,74.36l22.748,11.522c7.555,3.888 14.864,8.129 22.255,12.158l43.36,24.174c28.579,15.621 57.486,30.606 87.296,44.743c59.284,28.081 120.876,52.391 184.282,72.734c126.303,40.785 261.311,63.617 395.663,57.962c67.064,-2.64 133.261,-14.131 196.271,-34.07c63.073,-19.864 120.76,-50.632 169.5,-90.406c48.819,-40.315 86.801,-89.342 111.275,-143.631c12.517,-27.329 22.03,-55.609 28.414,-84.467c6.78,-29.006 10.818,-58.436 12.072,-88.003c1.299,29.717 -0.156,59.475 -4.352,88.992c-4.451,29.79 -12.122,59.157 -22.912,87.72c-22.118,57.554 -58.776,110.182 -107.334,154.092c-49.557,43.779 -109.042,78.33 -174.755,101.503c-65.476,22.995 -134.769,36.928 -205.305,41.279c-70.3,4.69 -141.003,2.032 -210.56,-7.916c-69.344,-9.753 -137.513,-24.919 -203.663,-45.309c-66.004,-20.396 -130.084,-45.138 -191.672,-74.007c-30.714,-14.419 -60.825,-29.664 -90.334,-45.733l-43.525,-23.962c-7.145,-3.817 -14.125,-7.846 -21.434,-11.521l-21.762,-10.956c-58.139,-29.199 -119.48,-53.396 -183.132,-72.24c-63.666,-18.64 -129.375,-31.643 -196.107,-38.806c-16.424,-2.049 -33.424,-3.11 -50.094,-4.523c-16.671,-1.414 -33.588,-1.909 -50.505,-2.05c-33.686,-0.849 -67.4,-0.212 -101.01,1.908c-16.917,0.848 -33.67,2.545 -50.505,3.959c-16.835,1.413 -33.506,3.675 -50.177,6.008c-33.423,4.453 -66.765,10.037 -99.696,16.964c-32.931,6.927 -65.697,14.702 -98.053,23.679c-32.356,8.977 -64.466,18.873 -96.247,29.476c-63.557,21.529 -125.561,46.313 -185.678,74.218c-60.494,27.724 -119.289,58.111 -176.151,91.042c-28.579,16.399 -56.5,33.222 -84.093,51.246c-27.593,18.025 -54.775,35.767 -80.726,55.276Z" style="fill:#fff;fill-rule:nonzero;"/><path d="M1526.89,992.296c44.501,27.869 91.144,53.114 139.607,75.562c24.089,11.356 48.506,22.006 73.253,31.949c24.636,9.896 49.273,19.509 74.977,28.274c25.704,8.765 50.998,16.328 76.702,23.962c25.704,7.634 51.819,14.137 78.18,19.438c52.457,11.733 105.884,19.981 159.809,24.669c26.854,2.333 53.872,4.312 80.89,4.807c26.912,0.897 53.862,0.52 80.726,-1.131c53.106,-2.079 105.397,-12.052 154.553,-29.476c48.775,-17.526 89.928,-47.827 117.599,-86.588c13.865,-19.744 24.14,-41.198 30.467,-63.616c3.377,-11.476 5.792,-23.145 7.227,-34.918c1.784,-11.714 2.389,-23.539 1.807,-35.343c10.364,48.137 2.863,97.882 -21.434,142.147c-12.797,22.442 -29.963,42.835 -50.752,60.294c-21.007,17.363 -44.96,31.878 -71.035,43.047c-25.759,11.196 -52.928,19.805 -80.972,25.658c-27.716,5.91 -55.909,10.021 -84.339,12.299c-28.183,2.057 -56.478,2.741 -84.75,2.05c-14.125,-0 -28.168,-0.707 -42.211,-1.343c-14.043,-0.636 -28.086,-1.767 -42.128,-2.969c-111.857,-10.509 -220.949,-36.778 -322.904,-77.753c-50.676,-20.307 -99.464,-43.938 -145.93,-70.684c-46.462,-26.376 -89.786,-56.634 -129.342,-90.335Z" style="fill:#fff;fill-rule:nonzero;"/></g></g></svg>